%TF.GenerationSoftware,KiCad,Pcbnew,9.0.3*%
%TF.CreationDate,2025-08-01T16:52:07-04:00*%
%TF.ProjectId,dongle_pcb,646f6e67-6c65-45f7-9063-622e6b696361,rev?*%
%TF.SameCoordinates,Original*%
%TF.FileFunction,Copper,L2,Bot*%
%TF.FilePolarity,Positive*%
%FSLAX46Y46*%
G04 Gerber Fmt 4.6, Leading zero omitted, Abs format (unit mm)*
G04 Created by KiCad (PCBNEW 9.0.3) date 2025-08-01 16:52:07*
%MOMM*%
%LPD*%
G01*
G04 APERTURE LIST*
G04 Aperture macros list*
%AMRoundRect*
0 Rectangle with rounded corners*
0 $1 Rounding radius*
0 $2 $3 $4 $5 $6 $7 $8 $9 X,Y pos of 4 corners*
0 Add a 4 corners polygon primitive as box body*
4,1,4,$2,$3,$4,$5,$6,$7,$8,$9,$2,$3,0*
0 Add four circle primitives for the rounded corners*
1,1,$1+$1,$2,$3*
1,1,$1+$1,$4,$5*
1,1,$1+$1,$6,$7*
1,1,$1+$1,$8,$9*
0 Add four rect primitives between the rounded corners*
20,1,$1+$1,$2,$3,$4,$5,0*
20,1,$1+$1,$4,$5,$6,$7,0*
20,1,$1+$1,$6,$7,$8,$9,0*
20,1,$1+$1,$8,$9,$2,$3,0*%
G04 Aperture macros list end*
%TA.AperFunction,SMDPad,CuDef*%
%ADD10RoundRect,0.237500X-0.237500X0.300000X-0.237500X-0.300000X0.237500X-0.300000X0.237500X0.300000X0*%
%TD*%
%TA.AperFunction,SMDPad,CuDef*%
%ADD11RoundRect,0.250000X-0.750000X-0.950000X0.750000X-0.950000X0.750000X0.950000X-0.750000X0.950000X0*%
%TD*%
%TA.AperFunction,SMDPad,CuDef*%
%ADD12RoundRect,0.225000X0.250000X-0.225000X0.250000X0.225000X-0.250000X0.225000X-0.250000X-0.225000X0*%
%TD*%
%TA.AperFunction,SMDPad,CuDef*%
%ADD13R,0.900000X2.000000*%
%TD*%
%TA.AperFunction,SMDPad,CuDef*%
%ADD14R,2.500000X2.500000*%
%TD*%
%TA.AperFunction,SMDPad,CuDef*%
%ADD15RoundRect,0.237500X0.237500X-0.300000X0.237500X0.300000X-0.237500X0.300000X-0.237500X-0.300000X0*%
%TD*%
%TA.AperFunction,SMDPad,CuDef*%
%ADD16RoundRect,0.150000X-0.150000X0.512500X-0.150000X-0.512500X0.150000X-0.512500X0.150000X0.512500X0*%
%TD*%
%TA.AperFunction,SMDPad,CuDef*%
%ADD17RoundRect,0.237500X0.300000X0.237500X-0.300000X0.237500X-0.300000X-0.237500X0.300000X-0.237500X0*%
%TD*%
%TA.AperFunction,ViaPad*%
%ADD18C,0.600000*%
%TD*%
%TA.AperFunction,ViaPad*%
%ADD19C,0.450000*%
%TD*%
%TA.AperFunction,ViaPad*%
%ADD20C,0.400000*%
%TD*%
%TA.AperFunction,Conductor*%
%ADD21C,0.200000*%
%TD*%
%TA.AperFunction,Conductor*%
%ADD22C,0.150000*%
%TD*%
G04 APERTURE END LIST*
D10*
%TO.P,C4,1*%
%TO.N,Net-(U3-XO)*%
X141780000Y-70477500D03*
%TO.P,C4,2*%
%TO.N,GND*%
X141780000Y-72202500D03*
%TD*%
D11*
%TO.P,Y1,1,1*%
%TO.N,Net-(U3-XO)*%
X131850000Y-78980000D03*
%TO.P,Y1,2,2*%
%TO.N,Net-(U3-XI)*%
X135550000Y-78980000D03*
%TD*%
D12*
%TO.P,R4,1*%
%TO.N,Net-(U1-RST)*%
X138840000Y-72115000D03*
%TO.P,R4,2*%
%TO.N,+3.3V*%
X138840000Y-70565000D03*
%TD*%
D10*
%TO.P,R5,1*%
%TO.N,+3.3V*%
X140310000Y-78565000D03*
%TO.P,R5,2*%
%TO.N,Net-(U1-GPIO2)*%
X140310000Y-80290000D03*
%TD*%
%TO.P,C3,1*%
%TO.N,+3.3V*%
X140310000Y-75257500D03*
%TO.P,C3,2*%
%TO.N,GND*%
X140310000Y-76982500D03*
%TD*%
D13*
%TO.P,U1,1,ADC*%
%TO.N,unconnected-(U1-ADC-Pad1)*%
X119990000Y-68940000D03*
%TO.P,U1,2,EN*%
%TO.N,unconnected-(U1-EN-Pad2)*%
X121490000Y-68940000D03*
%TO.P,U1,3,GPIO14*%
%TO.N,unconnected-(U1-GPIO14-Pad3)*%
X122990000Y-68940000D03*
%TO.P,U1,4,GPIO12*%
%TO.N,unconnected-(U1-GPIO12-Pad4)*%
X124490000Y-68940000D03*
%TO.P,U1,5,GPIO13*%
%TO.N,unconnected-(U1-GPIO13-Pad5)*%
X125990000Y-68940000D03*
%TO.P,U1,6,GPIO15*%
%TO.N,unconnected-(U1-GPIO15-Pad6)*%
X127490000Y-68940000D03*
%TO.P,U1,7,VCC*%
%TO.N,+3.3V*%
X128990000Y-68940000D03*
%TO.P,U1,8,GND*%
%TO.N,GND*%
X128990000Y-81240000D03*
%TO.P,U1,9,GPIO2*%
%TO.N,Net-(U1-GPIO2)*%
X127490000Y-81240000D03*
%TO.P,U1,10,GPIO0*%
%TO.N,Net-(U1-GPIO0)*%
X125990000Y-81240000D03*
%TO.P,U1,11,GPIO4*%
%TO.N,unconnected-(U1-GPIO4-Pad11)*%
X124490000Y-81240000D03*
%TO.P,U1,12,GPIO5*%
%TO.N,unconnected-(U1-GPIO5-Pad12)*%
X122990000Y-81240000D03*
%TO.P,U1,13,RX*%
%TO.N,Net-(U1-RX)*%
X121490000Y-81240000D03*
%TO.P,U1,14,TX*%
%TO.N,Net-(U1-TX)*%
X119990000Y-81240000D03*
%TO.P,U1,15,RST*%
%TO.N,Net-(U1-RST)*%
X118490000Y-81240000D03*
D14*
%TO.P,U1,16,GND*%
%TO.N,GND*%
X125190000Y-73790000D03*
%TD*%
D15*
%TO.P,R3,1*%
%TO.N,Net-(U1-GPIO0)*%
X138850000Y-80290000D03*
%TO.P,R3,2*%
%TO.N,+3.3V*%
X138850000Y-78565000D03*
%TD*%
D10*
%TO.P,C5,1*%
%TO.N,Net-(U3-XI)*%
X138840000Y-75255000D03*
%TO.P,C5,2*%
%TO.N,GND*%
X138840000Y-76980000D03*
%TD*%
D15*
%TO.P,R2,1*%
%TO.N,VBUS*%
X140320000Y-72202500D03*
%TO.P,R2,2*%
%TO.N,Net-(U2-EN)*%
X140320000Y-70477500D03*
%TD*%
D10*
%TO.P,C2,1*%
%TO.N,+3.3V*%
X141770000Y-75267500D03*
%TO.P,C2,2*%
%TO.N,GND*%
X141770000Y-76992500D03*
%TD*%
D16*
%TO.P,U2,1,VIN*%
%TO.N,VBUS*%
X135362500Y-71722500D03*
%TO.P,U2,2,GND*%
%TO.N,GND*%
X136312500Y-71722500D03*
%TO.P,U2,3,EN*%
%TO.N,Net-(U2-EN)*%
X137262500Y-71722500D03*
%TO.P,U2,4,NC*%
%TO.N,unconnected-(U2-NC-Pad4)*%
X137262500Y-73997500D03*
%TO.P,U2,5,VOUT*%
%TO.N,+3.3V*%
X135362500Y-73997500D03*
%TD*%
D17*
%TO.P,C1,1*%
%TO.N,VBUS*%
X140632500Y-73730000D03*
%TO.P,C1,2*%
%TO.N,GND*%
X138907500Y-73730000D03*
%TD*%
D18*
%TO.N,GND*%
X141610000Y-73730000D03*
D19*
X136680000Y-72700000D03*
D18*
X127275000Y-79535000D03*
X119160147Y-76242192D03*
X137500000Y-78830000D03*
X129228527Y-79690000D03*
X133820000Y-75530000D03*
D19*
X139440000Y-77810000D03*
D18*
%TO.N,VBUS*%
X135512500Y-71330000D03*
X138087500Y-71330000D03*
%TO.N,+3.3V*%
X141700000Y-75267500D03*
X141500000Y-78180000D03*
X125180000Y-70714000D03*
%TO.N,Net-(U3-XO)*%
X141700000Y-70477500D03*
X131610000Y-77329000D03*
%TO.N,Net-(U3-XI)*%
X130320000Y-75055000D03*
X127275000Y-71915000D03*
X135570000Y-77330000D03*
D19*
X140950000Y-76120000D03*
D18*
%TO.N,D-*%
X132880000Y-74070000D03*
X134490000Y-74430000D03*
D19*
%TO.N,Net-(U2-EN)*%
X137330000Y-72680000D03*
D20*
X141345376Y-71397552D03*
D18*
%TO.N,Net-(U1-GPIO0)*%
X119960000Y-79230000D03*
X125990000Y-81240000D03*
X138850000Y-80290000D03*
D19*
%TO.N,Net-(U1-RST)*%
X136070000Y-72720000D03*
D20*
X130100000Y-72000000D03*
D18*
X119960000Y-74460000D03*
%TO.N,Net-(U1-RX)*%
X121490000Y-81240000D03*
%TO.N,Net-(U1-TX)*%
X119990000Y-81240000D03*
%TD*%
D21*
%TO.N,GND*%
X129228527Y-79690000D02*
X129228527Y-80479000D01*
X133820000Y-75530000D02*
X135187043Y-75530000D01*
X139440000Y-77580000D02*
X138840000Y-76980000D01*
X137888500Y-75090000D02*
X137888500Y-76028500D01*
X139440000Y-77810000D02*
X139440000Y-77580000D01*
X120367955Y-77450000D02*
X119160147Y-76242192D01*
X125190000Y-73790000D02*
X125190000Y-77450000D01*
X138907500Y-73730000D02*
X137888500Y-74749000D01*
D22*
X136312500Y-72175757D02*
X136312500Y-71722500D01*
D21*
X125190000Y-77450000D02*
X120367955Y-77450000D01*
X129228527Y-80479000D02*
X128990000Y-80479000D01*
X137888500Y-76028500D02*
X138840000Y-76980000D01*
X137888500Y-74749000D02*
X137888500Y-75090000D01*
X135187043Y-75530000D02*
X137500000Y-77842957D01*
X125190000Y-77450000D02*
X127275000Y-79535000D01*
D22*
X136680000Y-72543257D02*
X136312500Y-72175757D01*
D21*
X137500000Y-77842957D02*
X137500000Y-78830000D01*
D22*
X136680000Y-72700000D02*
X136680000Y-72543257D01*
D21*
%TO.N,VBUS*%
X140632500Y-73730000D02*
X140632500Y-72515000D01*
X139447500Y-71330000D02*
X138087500Y-71330000D01*
X135362500Y-71480000D02*
X135512500Y-71330000D01*
X140632500Y-72515000D02*
X140320000Y-72202500D01*
X135362500Y-71722500D02*
X135362500Y-71480000D01*
X140320000Y-72202500D02*
X139447500Y-71330000D01*
%TO.N,+3.3V*%
X134736500Y-70696010D02*
X134769490Y-70729000D01*
X140320000Y-75267500D02*
X140310000Y-75257500D01*
X134769490Y-70729000D02*
X138676000Y-70729000D01*
X133501000Y-69681000D02*
X134516010Y-70696010D01*
X134516010Y-70696010D02*
X134736500Y-70696010D01*
X128801000Y-69681000D02*
X133501000Y-69681000D01*
X141115000Y-78565000D02*
X141500000Y-78180000D01*
X138676000Y-70729000D02*
X138840000Y-70565000D01*
X135362500Y-74210000D02*
X135362500Y-75077500D01*
X138840000Y-70477500D02*
X138791500Y-70429000D01*
X127768000Y-70714000D02*
X128801000Y-69681000D01*
X125180000Y-70714000D02*
X127768000Y-70714000D01*
X138850000Y-78565000D02*
X140310000Y-78565000D01*
X140310000Y-78565000D02*
X141115000Y-78565000D01*
X134736500Y-73584000D02*
X135362500Y-74210000D01*
X135362500Y-75077500D02*
X138850000Y-78565000D01*
X134736500Y-70696010D02*
X134736500Y-73584000D01*
X141770000Y-75267500D02*
X140320000Y-75267500D01*
%TO.N,Net-(U3-XO)*%
X131850000Y-77569000D02*
X131610000Y-77329000D01*
X131850000Y-78980000D02*
X131850000Y-77569000D01*
%TO.N,Net-(U3-XI)*%
X130320000Y-74960000D02*
X127275000Y-71915000D01*
X140834648Y-76095352D02*
X139680352Y-76095352D01*
X140950000Y-76120000D02*
X140859296Y-76120000D01*
X139680352Y-76095352D02*
X138840000Y-75255000D01*
X135570000Y-78960000D02*
X135550000Y-78980000D01*
X130320000Y-75055000D02*
X130320000Y-74960000D01*
X140859296Y-76120000D02*
X140834648Y-76095352D01*
X135570000Y-77330000D02*
X135570000Y-78960000D01*
D22*
%TO.N,D-*%
X134130000Y-74070000D02*
X134490000Y-74430000D01*
X132880000Y-74070000D02*
X134130000Y-74070000D01*
D21*
%TO.N,Net-(U2-EN)*%
X141291143Y-71343319D02*
X141185819Y-71343319D01*
X141185819Y-71343319D02*
X140320000Y-70477500D01*
X137262500Y-72612500D02*
X137330000Y-72680000D01*
X141345376Y-71397552D02*
X141291143Y-71343319D01*
X137320000Y-71780000D02*
X137262500Y-71722500D01*
X137262500Y-71722500D02*
X137262500Y-72612500D01*
%TO.N,Net-(U1-GPIO0)*%
X125990000Y-81240000D02*
X125990000Y-80688000D01*
X125990000Y-80688000D02*
X124532000Y-79230000D01*
X124532000Y-79230000D02*
X119960000Y-79230000D01*
X138850000Y-80290000D02*
X138870000Y-80290000D01*
%TO.N,Net-(U1-RST)*%
X129365000Y-72000000D02*
X128679000Y-71314000D01*
X118490000Y-75930000D02*
X118490000Y-81240000D01*
X137824000Y-73131000D02*
X138840000Y-72115000D01*
X119960000Y-74460000D02*
X118490000Y-75930000D01*
X123106000Y-71314000D02*
X119960000Y-74460000D01*
X136080000Y-72720000D02*
X136080000Y-72925000D01*
X136286000Y-73131000D02*
X137824000Y-73131000D01*
X136080000Y-72925000D02*
X136286000Y-73131000D01*
X128679000Y-71314000D02*
X123106000Y-71314000D01*
X130100000Y-72000000D02*
X129365000Y-72000000D01*
%TO.N,Net-(U1-GPIO2)*%
X135818943Y-76729000D02*
X131341000Y-76729000D01*
X136851000Y-77761057D02*
X135818943Y-76729000D01*
X131341000Y-76729000D02*
X127490000Y-80580000D01*
X127490000Y-80580000D02*
X127490000Y-81240000D01*
X139471500Y-79451500D02*
X136851000Y-79451500D01*
X136851000Y-79451500D02*
X136851000Y-77761057D01*
X140310000Y-80290000D02*
X139471500Y-79451500D01*
%TD*%
%TA.AperFunction,Conductor*%
%TO.N,GND*%
G36*
X130268833Y-78752913D02*
G01*
X130324767Y-78794785D01*
X130349184Y-78860249D01*
X130349500Y-78869095D01*
X130349500Y-79980001D01*
X130349501Y-79980018D01*
X130360000Y-80082796D01*
X130360001Y-80082799D01*
X130415185Y-80249331D01*
X130415187Y-80249336D01*
X130507289Y-80398657D01*
X130631344Y-80522712D01*
X130675522Y-80549961D01*
X130722247Y-80601909D01*
X130733470Y-80670871D01*
X130705627Y-80734953D01*
X130647558Y-80773810D01*
X130610426Y-80779500D01*
X130539562Y-80779500D01*
X130460438Y-80779500D01*
X130422224Y-80789739D01*
X130384009Y-80799979D01*
X130384004Y-80799982D01*
X130315495Y-80839535D01*
X130315487Y-80839541D01*
X130259541Y-80895487D01*
X130259535Y-80895495D01*
X130219982Y-80964004D01*
X130219977Y-80964015D01*
X130208300Y-81007595D01*
X130193807Y-81031370D01*
X130182239Y-81056703D01*
X130175873Y-81060794D01*
X130171935Y-81067255D01*
X130146887Y-81079421D01*
X130123461Y-81094477D01*
X130112712Y-81096022D01*
X130109088Y-81097783D01*
X130088526Y-81099500D01*
X130064000Y-81099500D01*
X129996961Y-81079815D01*
X129951206Y-81027011D01*
X129940000Y-80975500D01*
X129940000Y-80192172D01*
X129939999Y-80192155D01*
X129933598Y-80132627D01*
X129933596Y-80132620D01*
X129883354Y-79997913D01*
X129883350Y-79997906D01*
X129797190Y-79882812D01*
X129797187Y-79882809D01*
X129682093Y-79796649D01*
X129682086Y-79796645D01*
X129547379Y-79746403D01*
X129547372Y-79746401D01*
X129487844Y-79740000D01*
X129478596Y-79740000D01*
X129411557Y-79720315D01*
X129365802Y-79667511D01*
X129355858Y-79598353D01*
X129384883Y-79534797D01*
X129390915Y-79528319D01*
X129762946Y-79156288D01*
X130137821Y-78781412D01*
X130199142Y-78747929D01*
X130268833Y-78752913D01*
G37*
%TD.AperFunction*%
%TA.AperFunction,Conductor*%
G36*
X133267942Y-70301185D02*
G01*
X133288584Y-70317819D01*
X134035488Y-71064723D01*
X134035490Y-71064726D01*
X134099682Y-71128918D01*
X134133166Y-71190239D01*
X134133165Y-71190240D01*
X134133166Y-71190241D01*
X134136000Y-71216598D01*
X134136000Y-73370500D01*
X134116315Y-73437539D01*
X134063511Y-73483294D01*
X134012000Y-73494500D01*
X133487941Y-73494500D01*
X133420902Y-73474815D01*
X133400260Y-73458181D01*
X133390292Y-73448213D01*
X133390288Y-73448210D01*
X133259185Y-73360609D01*
X133259172Y-73360602D01*
X133113501Y-73300264D01*
X133113489Y-73300261D01*
X132958845Y-73269500D01*
X132958842Y-73269500D01*
X132801158Y-73269500D01*
X132801155Y-73269500D01*
X132646510Y-73300261D01*
X132646498Y-73300264D01*
X132500827Y-73360602D01*
X132500814Y-73360609D01*
X132369711Y-73448210D01*
X132369707Y-73448213D01*
X132258213Y-73559707D01*
X132258210Y-73559711D01*
X132170609Y-73690814D01*
X132170602Y-73690827D01*
X132110264Y-73836498D01*
X132110261Y-73836510D01*
X132079500Y-73991153D01*
X132079500Y-74148846D01*
X132110261Y-74303489D01*
X132110264Y-74303501D01*
X132170602Y-74449172D01*
X132170609Y-74449185D01*
X132258210Y-74580288D01*
X132258213Y-74580292D01*
X132369707Y-74691786D01*
X132369711Y-74691789D01*
X132500814Y-74779390D01*
X132500827Y-74779397D01*
X132644989Y-74839110D01*
X132646503Y-74839737D01*
X132801153Y-74870499D01*
X132801156Y-74870500D01*
X132801158Y-74870500D01*
X132958844Y-74870500D01*
X132958845Y-74870499D01*
X133113497Y-74839737D01*
X133259179Y-74779394D01*
X133390289Y-74691789D01*
X133391478Y-74690600D01*
X133400260Y-74681819D01*
X133427187Y-74667115D01*
X133453006Y-74650523D01*
X133459206Y-74649631D01*
X133461583Y-74648334D01*
X133487941Y-74645500D01*
X133629954Y-74645500D01*
X133696993Y-74665185D01*
X133742748Y-74717989D01*
X133744515Y-74722048D01*
X133780602Y-74809172D01*
X133780609Y-74809185D01*
X133868210Y-74940288D01*
X133868213Y-74940292D01*
X133979707Y-75051786D01*
X133979711Y-75051789D01*
X134110814Y-75139390D01*
X134110827Y-75139397D01*
X134256498Y-75199735D01*
X134256503Y-75199737D01*
X134354179Y-75219166D01*
X134411153Y-75230499D01*
X134411156Y-75230500D01*
X134411158Y-75230500D01*
X134568844Y-75230500D01*
X134657128Y-75212939D01*
X134726720Y-75219166D01*
X134781897Y-75262029D01*
X134793623Y-75281981D01*
X134798261Y-75291889D01*
X134802923Y-75309285D01*
X134818669Y-75336557D01*
X134875026Y-75434172D01*
X134881979Y-75446214D01*
X134881981Y-75446217D01*
X135000849Y-75565085D01*
X135000855Y-75565090D01*
X135352584Y-75916819D01*
X135386069Y-75978142D01*
X135381085Y-76047834D01*
X135339213Y-76103767D01*
X135273749Y-76128184D01*
X135264903Y-76128500D01*
X131261940Y-76128500D01*
X131221019Y-76139464D01*
X131221019Y-76139465D01*
X131183751Y-76149451D01*
X131109214Y-76169423D01*
X131109209Y-76169426D01*
X130972290Y-76248475D01*
X130972282Y-76248481D01*
X127981681Y-79239083D01*
X127920358Y-79272568D01*
X127850666Y-79267584D01*
X127794733Y-79225712D01*
X127770316Y-79160248D01*
X127770000Y-79151402D01*
X127770000Y-73558597D01*
X127789685Y-73491558D01*
X127842489Y-73445803D01*
X127911647Y-73435859D01*
X127975203Y-73464884D01*
X127981681Y-73470916D01*
X129483181Y-74972416D01*
X129516666Y-75033739D01*
X129519500Y-75060097D01*
X129519500Y-75133846D01*
X129550261Y-75288489D01*
X129550264Y-75288501D01*
X129610602Y-75434172D01*
X129610609Y-75434185D01*
X129698210Y-75565288D01*
X129698213Y-75565292D01*
X129809707Y-75676786D01*
X129809711Y-75676789D01*
X129940814Y-75764390D01*
X129940827Y-75764397D01*
X130086498Y-75824735D01*
X130086503Y-75824737D01*
X130241153Y-75855499D01*
X130241156Y-75855500D01*
X130241158Y-75855500D01*
X130398844Y-75855500D01*
X130398845Y-75855499D01*
X130553497Y-75824737D01*
X130699179Y-75764394D01*
X130830289Y-75676789D01*
X130941789Y-75565289D01*
X131029394Y-75434179D01*
X131089737Y-75288497D01*
X131120500Y-75133842D01*
X131120500Y-74976158D01*
X131120500Y-74976155D01*
X131120499Y-74976153D01*
X131093364Y-74839737D01*
X131089737Y-74821503D01*
X131082797Y-74804748D01*
X131029397Y-74675827D01*
X131029390Y-74675814D01*
X130941789Y-74544711D01*
X130941786Y-74544707D01*
X130830292Y-74433213D01*
X130830288Y-74433210D01*
X130699185Y-74345609D01*
X130699172Y-74345602D01*
X130553501Y-74285264D01*
X130553489Y-74285261D01*
X130516740Y-74277951D01*
X130454829Y-74245566D01*
X130453250Y-74244015D01*
X128937031Y-72727796D01*
X128903546Y-72666473D01*
X128908530Y-72596781D01*
X128950402Y-72540848D01*
X129015866Y-72516431D01*
X129084139Y-72531283D01*
X129086702Y-72532722D01*
X129133216Y-72559577D01*
X129285943Y-72600501D01*
X129285945Y-72600501D01*
X129451654Y-72600501D01*
X129451670Y-72600500D01*
X129700230Y-72600500D01*
X129762369Y-72618746D01*
X129762819Y-72617905D01*
X129766859Y-72620064D01*
X129767269Y-72620185D01*
X129768087Y-72620721D01*
X129768190Y-72620776D01*
X129878514Y-72666473D01*
X129895672Y-72673580D01*
X129895676Y-72673580D01*
X129895677Y-72673581D01*
X130031004Y-72700500D01*
X130031007Y-72700500D01*
X130168995Y-72700500D01*
X130260041Y-72682389D01*
X130304328Y-72673580D01*
X130431811Y-72620775D01*
X130546542Y-72544114D01*
X130644114Y-72446542D01*
X130720775Y-72331811D01*
X130773580Y-72204328D01*
X130784686Y-72148497D01*
X130800500Y-72068995D01*
X130800500Y-71931004D01*
X130773581Y-71795677D01*
X130773580Y-71795676D01*
X130773580Y-71795672D01*
X130737754Y-71709179D01*
X130720778Y-71668195D01*
X130720771Y-71668182D01*
X130644114Y-71553458D01*
X130644111Y-71553454D01*
X130546545Y-71455888D01*
X130546541Y-71455885D01*
X130431817Y-71379228D01*
X130431804Y-71379221D01*
X130304332Y-71326421D01*
X130304322Y-71326418D01*
X130168995Y-71299500D01*
X130168993Y-71299500D01*
X130031007Y-71299500D01*
X130031005Y-71299500D01*
X129895677Y-71326418D01*
X129895667Y-71326421D01*
X129768190Y-71379223D01*
X129762819Y-71382095D01*
X129762123Y-71380794D01*
X129751072Y-71384253D01*
X129735165Y-71394477D01*
X129704195Y-71398929D01*
X129702438Y-71399480D01*
X129700230Y-71399500D01*
X129665098Y-71399500D01*
X129598059Y-71379815D01*
X129577417Y-71363181D01*
X129166590Y-70952355D01*
X129166588Y-70952352D01*
X129047717Y-70833481D01*
X129047716Y-70833480D01*
X128941317Y-70772051D01*
X128941316Y-70772050D01*
X128930140Y-70765598D01*
X128910785Y-70754423D01*
X128910782Y-70754422D01*
X128910778Y-70754420D01*
X128854843Y-70739432D01*
X128795183Y-70703067D01*
X128764655Y-70640219D01*
X128772950Y-70570844D01*
X128799255Y-70531979D01*
X128854418Y-70476817D01*
X128875041Y-70465555D01*
X128893148Y-70450569D01*
X128905141Y-70449120D01*
X128915741Y-70443333D01*
X128942098Y-70440499D01*
X129487871Y-70440499D01*
X129487872Y-70440499D01*
X129547483Y-70434091D01*
X129682331Y-70383796D01*
X129683500Y-70382920D01*
X129785941Y-70306234D01*
X129851405Y-70281816D01*
X129860252Y-70281500D01*
X133200903Y-70281500D01*
X133267942Y-70301185D01*
G37*
%TD.AperFunction*%
%TA.AperFunction,Conductor*%
G36*
X137656703Y-78221384D02*
G01*
X137663173Y-78227409D01*
X137750861Y-78315097D01*
X137838181Y-78402417D01*
X137852886Y-78429348D01*
X137869477Y-78455163D01*
X137870368Y-78461364D01*
X137871666Y-78463740D01*
X137874500Y-78490097D01*
X137874501Y-78726999D01*
X137854817Y-78794039D01*
X137802013Y-78839794D01*
X137750501Y-78851000D01*
X137575500Y-78851000D01*
X137508461Y-78831315D01*
X137462706Y-78778511D01*
X137451500Y-78727000D01*
X137451500Y-78315097D01*
X137471185Y-78248058D01*
X137523989Y-78202303D01*
X137593147Y-78192359D01*
X137656703Y-78221384D01*
G37*
%TD.AperFunction*%
%TA.AperFunction,Conductor*%
G36*
X139899652Y-76732500D02*
G01*
X140523192Y-76732500D01*
X140590231Y-76752185D01*
X140592048Y-76753375D01*
X140606347Y-76762929D01*
X140738380Y-76817619D01*
X140738384Y-76817619D01*
X140738385Y-76817620D01*
X140878542Y-76845500D01*
X140878545Y-76845500D01*
X141021457Y-76845500D01*
X141115751Y-76826742D01*
X141161620Y-76817619D01*
X141293653Y-76762929D01*
X141294019Y-76762684D01*
X141294240Y-76762614D01*
X141299020Y-76760060D01*
X141299504Y-76760966D01*
X141360692Y-76741800D01*
X141363638Y-76742607D01*
X141363638Y-76742500D01*
X141646000Y-76742500D01*
X141713039Y-76762185D01*
X141758794Y-76814989D01*
X141770000Y-76866500D01*
X141770000Y-77118500D01*
X141750315Y-77185539D01*
X141697511Y-77231294D01*
X141646000Y-77242500D01*
X140726362Y-77242500D01*
X140692306Y-77232500D01*
X139258862Y-77232500D01*
X139250348Y-77230000D01*
X138964000Y-77230000D01*
X138896961Y-77210315D01*
X138851206Y-77157511D01*
X138840000Y-77106000D01*
X138840000Y-76854000D01*
X138859685Y-76786961D01*
X138912489Y-76741206D01*
X138964000Y-76730000D01*
X139891138Y-76730000D01*
X139899652Y-76732500D01*
G37*
%TD.AperFunction*%
%TA.AperFunction,Conductor*%
G36*
X136805039Y-73751185D02*
G01*
X136850794Y-73803989D01*
X136862000Y-73855500D01*
X136862000Y-74534678D01*
X136876532Y-74607735D01*
X136876533Y-74607739D01*
X136879763Y-74612573D01*
X136931899Y-74690601D01*
X136972889Y-74717989D01*
X137014760Y-74745966D01*
X137014764Y-74745967D01*
X137087821Y-74760499D01*
X137087824Y-74760500D01*
X137087826Y-74760500D01*
X137437176Y-74760500D01*
X137437177Y-74760499D01*
X137510240Y-74745966D01*
X137593101Y-74690601D01*
X137648466Y-74607740D01*
X137663000Y-74534674D01*
X137663000Y-74230251D01*
X137682685Y-74163212D01*
X137735489Y-74117457D01*
X137804647Y-74107513D01*
X137868203Y-74136538D01*
X137904706Y-74191247D01*
X137934546Y-74281300D01*
X137934551Y-74281311D01*
X138002594Y-74391624D01*
X138021035Y-74459016D01*
X138002595Y-74521815D01*
X137988474Y-74544711D01*
X137929093Y-74640981D01*
X137929091Y-74640986D01*
X137912651Y-74690600D01*
X137874826Y-74804747D01*
X137874826Y-74804748D01*
X137874825Y-74804748D01*
X137864500Y-74905815D01*
X137864500Y-75604169D01*
X137864501Y-75604187D01*
X137874825Y-75705252D01*
X137929092Y-75869015D01*
X137929093Y-75869018D01*
X138019661Y-76015851D01*
X138033982Y-76030172D01*
X138067467Y-76091495D01*
X138062483Y-76161187D01*
X138033985Y-76205532D01*
X138020052Y-76219465D01*
X137929551Y-76366188D01*
X137929547Y-76366197D01*
X137885978Y-76497679D01*
X137846205Y-76555123D01*
X137781689Y-76581946D01*
X137712913Y-76569631D01*
X137680591Y-76546355D01*
X136104360Y-74970125D01*
X136070875Y-74908802D01*
X136075859Y-74839110D01*
X136085302Y-74819334D01*
X136114244Y-74770398D01*
X136129471Y-74717989D01*
X136160097Y-74612573D01*
X136160098Y-74612567D01*
X136162999Y-74575701D01*
X136163000Y-74575694D01*
X136163000Y-73855500D01*
X136165550Y-73846815D01*
X136164262Y-73837855D01*
X136175240Y-73813813D01*
X136182685Y-73788462D01*
X136189524Y-73782535D01*
X136193286Y-73774299D01*
X136215521Y-73760008D01*
X136235489Y-73742707D01*
X136246001Y-73740419D01*
X136252064Y-73736524D01*
X136286997Y-73731501D01*
X136286999Y-73731501D01*
X136365057Y-73731501D01*
X136365060Y-73731500D01*
X136372668Y-73731500D01*
X136738000Y-73731500D01*
X136805039Y-73751185D01*
G37*
%TD.AperFunction*%
%TA.AperFunction,Conductor*%
G36*
X141973039Y-72222185D02*
G01*
X142018794Y-72274989D01*
X142030000Y-72326500D01*
X142030000Y-73239999D01*
X142066630Y-73239999D01*
X142069175Y-73239869D01*
X142069719Y-73239999D01*
X142069802Y-73239999D01*
X142069802Y-73240018D01*
X142137132Y-73256109D01*
X142185520Y-73306511D01*
X142199500Y-73363708D01*
X142199500Y-74106777D01*
X142179815Y-74173816D01*
X142127011Y-74219571D01*
X142062902Y-74230135D01*
X142056696Y-74229501D01*
X142056680Y-74229500D01*
X142056677Y-74229500D01*
X142056672Y-74229500D01*
X141786071Y-74229500D01*
X141719032Y-74209815D01*
X141673277Y-74157011D01*
X141662713Y-74092897D01*
X141670499Y-74016684D01*
X141670500Y-74016677D01*
X141670499Y-73443324D01*
X141669736Y-73435859D01*
X141660174Y-73342247D01*
X141646261Y-73300261D01*
X141605908Y-73178484D01*
X141605904Y-73178477D01*
X141548461Y-73085346D01*
X141530000Y-73020250D01*
X141530000Y-72326500D01*
X141549685Y-72259461D01*
X141602489Y-72213706D01*
X141654000Y-72202500D01*
X141906000Y-72202500D01*
X141973039Y-72222185D01*
G37*
%TD.AperFunction*%
%TD*%
M02*
