%TF.GenerationSoftware,KiCad,Pcbnew,9.0.3*%
%TF.CreationDate,2025-08-01T16:52:08-04:00*%
%TF.ProjectId,dongle_pcb,646f6e67-6c65-45f7-9063-622e6b696361,rev?*%
%TF.SameCoordinates,Original*%
%TF.FileFunction,Soldermask,Bot*%
%TF.FilePolarity,Negative*%
%FSLAX46Y46*%
G04 Gerber Fmt 4.6, Leading zero omitted, Abs format (unit mm)*
G04 Created by KiCad (PCBNEW 9.0.3) date 2025-08-01 16:52:08*
%MOMM*%
%LPD*%
G01*
G04 APERTURE LIST*
G04 Aperture macros list*
%AMRoundRect*
0 Rectangle with rounded corners*
0 $1 Rounding radius*
0 $2 $3 $4 $5 $6 $7 $8 $9 X,Y pos of 4 corners*
0 Add a 4 corners polygon primitive as box body*
4,1,4,$2,$3,$4,$5,$6,$7,$8,$9,$2,$3,0*
0 Add four circle primitives for the rounded corners*
1,1,$1+$1,$2,$3*
1,1,$1+$1,$4,$5*
1,1,$1+$1,$6,$7*
1,1,$1+$1,$8,$9*
0 Add four rect primitives between the rounded corners*
20,1,$1+$1,$2,$3,$4,$5,0*
20,1,$1+$1,$4,$5,$6,$7,0*
20,1,$1+$1,$6,$7,$8,$9,0*
20,1,$1+$1,$8,$9,$2,$3,0*%
G04 Aperture macros list end*
%ADD10RoundRect,0.237500X-0.237500X0.300000X-0.237500X-0.300000X0.237500X-0.300000X0.237500X0.300000X0*%
%ADD11RoundRect,0.250000X-0.750000X-0.950000X0.750000X-0.950000X0.750000X0.950000X-0.750000X0.950000X0*%
%ADD12RoundRect,0.225000X0.250000X-0.225000X0.250000X0.225000X-0.250000X0.225000X-0.250000X-0.225000X0*%
%ADD13R,0.900000X2.000000*%
%ADD14R,2.500000X2.500000*%
%ADD15RoundRect,0.237500X0.237500X-0.300000X0.237500X0.300000X-0.237500X0.300000X-0.237500X-0.300000X0*%
%ADD16RoundRect,0.150000X-0.150000X0.512500X-0.150000X-0.512500X0.150000X-0.512500X0.150000X0.512500X0*%
%ADD17RoundRect,0.237500X0.300000X0.237500X-0.300000X0.237500X-0.300000X-0.237500X0.300000X-0.237500X0*%
G04 APERTURE END LIST*
D10*
%TO.C,C4*%
X141780000Y-70477500D03*
X141780000Y-72202500D03*
%TD*%
D11*
%TO.C,Y1*%
X131850000Y-78980000D03*
X135550000Y-78980000D03*
%TD*%
D12*
%TO.C,R4*%
X138840000Y-72115000D03*
X138840000Y-70565000D03*
%TD*%
D10*
%TO.C,R5*%
X140310000Y-78565000D03*
X140310000Y-80290000D03*
%TD*%
%TO.C,C3*%
X140310000Y-75257500D03*
X140310000Y-76982500D03*
%TD*%
D13*
%TO.C,U1*%
X119990000Y-68940000D03*
X121490000Y-68940000D03*
X122990000Y-68940000D03*
X124490000Y-68940000D03*
X125990000Y-68940000D03*
X127490000Y-68940000D03*
X128990000Y-68940000D03*
X128990000Y-81240000D03*
X127490000Y-81240000D03*
X125990000Y-81240000D03*
X124490000Y-81240000D03*
X122990000Y-81240000D03*
X121490000Y-81240000D03*
X119990000Y-81240000D03*
X118490000Y-81240000D03*
D14*
X125190000Y-73790000D03*
%TD*%
D15*
%TO.C,R3*%
X138850000Y-80290000D03*
X138850000Y-78565000D03*
%TD*%
D10*
%TO.C,C5*%
X138840000Y-75255000D03*
X138840000Y-76980000D03*
%TD*%
D15*
%TO.C,R2*%
X140320000Y-72202500D03*
X140320000Y-70477500D03*
%TD*%
D10*
%TO.C,C2*%
X141770000Y-75267500D03*
X141770000Y-76992500D03*
%TD*%
D16*
%TO.C,U2*%
X135362500Y-71722500D03*
X136312500Y-71722500D03*
X137262500Y-71722500D03*
X137262500Y-73997500D03*
X135362500Y-73997500D03*
%TD*%
D17*
%TO.C,C1*%
X140632500Y-73730000D03*
X138907500Y-73730000D03*
%TD*%
M02*
