%TF.GenerationSoftware,KiCad,Pcbnew,9.0.3*%
%TF.CreationDate,2025-08-01T16:52:07-04:00*%
%TF.ProjectId,dongle_pcb,646f6e67-6c65-45f7-9063-622e6b696361,rev?*%
%TF.SameCoordinates,Original*%
%TF.FileFunction,Copper,L1,Top*%
%TF.FilePolarity,Positive*%
%FSLAX46Y46*%
G04 Gerber Fmt 4.6, Leading zero omitted, Abs format (unit mm)*
G04 Created by KiCad (PCBNEW 9.0.3) date 2025-08-01 16:52:07*
%MOMM*%
%LPD*%
G01*
G04 APERTURE LIST*
G04 Aperture macros list*
%AMRoundRect*
0 Rectangle with rounded corners*
0 $1 Rounding radius*
0 $2 $3 $4 $5 $6 $7 $8 $9 X,Y pos of 4 corners*
0 Add a 4 corners polygon primitive as box body*
4,1,4,$2,$3,$4,$5,$6,$7,$8,$9,$2,$3,0*
0 Add four circle primitives for the rounded corners*
1,1,$1+$1,$2,$3*
1,1,$1+$1,$4,$5*
1,1,$1+$1,$6,$7*
1,1,$1+$1,$8,$9*
0 Add four rect primitives between the rounded corners*
20,1,$1+$1,$2,$3,$4,$5,0*
20,1,$1+$1,$4,$5,$6,$7,0*
20,1,$1+$1,$6,$7,$8,$9,0*
20,1,$1+$1,$8,$9,$2,$3,0*%
G04 Aperture macros list end*
%TA.AperFunction,SMDPad,CuDef*%
%ADD10R,0.600000X1.000000*%
%TD*%
%TA.AperFunction,SMDPad,CuDef*%
%ADD11R,0.500000X1.000000*%
%TD*%
%TA.AperFunction,SMDPad,CuDef*%
%ADD12RoundRect,0.150000X0.825000X0.150000X-0.825000X0.150000X-0.825000X-0.150000X0.825000X-0.150000X0*%
%TD*%
%TA.AperFunction,SMDPad,CuDef*%
%ADD13RoundRect,0.250000X3.250000X0.750000X-3.250000X0.750000X-3.250000X-0.750000X3.250000X-0.750000X0*%
%TD*%
%TA.AperFunction,SMDPad,CuDef*%
%ADD14RoundRect,0.250000X2.750000X0.500000X-2.750000X0.500000X-2.750000X-0.500000X2.750000X-0.500000X0*%
%TD*%
%TA.AperFunction,ViaPad*%
%ADD15C,0.600000*%
%TD*%
%TA.AperFunction,ViaPad*%
%ADD16C,0.450000*%
%TD*%
%TA.AperFunction,ViaPad*%
%ADD17C,0.400000*%
%TD*%
%TA.AperFunction,Conductor*%
%ADD18C,0.150000*%
%TD*%
%TA.AperFunction,Conductor*%
%ADD19C,0.200000*%
%TD*%
%TA.AperFunction,Conductor*%
%ADD20C,0.100000*%
%TD*%
G04 APERTURE END LIST*
D10*
%TO.P,SW2,1,1*%
%TO.N,Net-(U1-RST)*%
X119960000Y-74460000D03*
%TO.P,SW2,2,2*%
%TO.N,unconnected-(SW2-Pad2)*%
X119960000Y-70960000D03*
%TO.P,SW2,3,3*%
%TO.N,GND*%
X117760000Y-70960000D03*
%TO.P,SW2,4,4*%
%TO.N,unconnected-(SW2-Pad4)*%
X117760000Y-74460000D03*
D11*
%TO.P,SW2,5,5*%
%TO.N,unconnected-(SW2-Pad5)*%
X117110000Y-72710000D03*
X120610000Y-72710000D03*
%TD*%
D12*
%TO.P,U3,1,GND*%
%TO.N,GND*%
X127275000Y-79535000D03*
%TO.P,U3,2,TXD*%
%TO.N,Net-(U1-RX)*%
X127275000Y-78265000D03*
%TO.P,U3,3,RXD*%
%TO.N,Net-(U1-TX)*%
X127275000Y-76995000D03*
%TO.P,U3,4,V3*%
%TO.N,+3.3V*%
X127275000Y-75725000D03*
%TO.P,U3,5,UD+*%
%TO.N,D+*%
X127275000Y-74455000D03*
%TO.P,U3,6,UD-*%
%TO.N,D-*%
X127275000Y-73185000D03*
%TO.P,U3,7,XI*%
%TO.N,Net-(U3-XI)*%
X127275000Y-71915000D03*
%TO.P,U3,8,XO*%
%TO.N,Net-(U3-XO)*%
X127275000Y-70645000D03*
%TO.P,U3,9,~{CTS}*%
%TO.N,unconnected-(U3-~{CTS}-Pad9)*%
X122325000Y-70645000D03*
%TO.P,U3,10,~{DSR}*%
%TO.N,unconnected-(U3-~{DSR}-Pad10)*%
X122325000Y-71915000D03*
%TO.P,U3,11,~{RI}*%
%TO.N,unconnected-(U3-~{RI}-Pad11)*%
X122325000Y-73185000D03*
%TO.P,U3,12,~{DCD}*%
%TO.N,unconnected-(U3-~{DCD}-Pad12)*%
X122325000Y-74455000D03*
%TO.P,U3,13,~{DTR}*%
%TO.N,unconnected-(U3-~{DTR}-Pad13)*%
X122325000Y-75725000D03*
%TO.P,U3,14,~{RTS}*%
%TO.N,unconnected-(U3-~{RTS}-Pad14)*%
X122325000Y-76995000D03*
%TO.P,U3,15,R232*%
%TO.N,unconnected-(U3-R232-Pad15)*%
X122325000Y-78265000D03*
%TO.P,U3,16,VCC*%
%TO.N,+3.3V*%
X122325000Y-79535000D03*
%TD*%
D13*
%TO.P,J2,1,VBUS*%
%TO.N,VBUS*%
X137500000Y-71330000D03*
D14*
%TO.P,J2,2,D-*%
%TO.N,D-*%
X137500000Y-74080000D03*
%TO.P,J2,3,D+*%
%TO.N,D+*%
X137500000Y-76080000D03*
D13*
%TO.P,J2,4,GND*%
%TO.N,GND*%
X137500000Y-78830000D03*
%TD*%
D10*
%TO.P,SW1,1,1*%
%TO.N,Net-(U1-GPIO0)*%
X119960000Y-79230000D03*
%TO.P,SW1,2,2*%
%TO.N,unconnected-(SW1-Pad2)*%
X119960000Y-75730000D03*
%TO.P,SW1,3,3*%
%TO.N,GND*%
X117760000Y-75730000D03*
%TO.P,SW1,4,4*%
%TO.N,unconnected-(SW1-Pad4)*%
X117760000Y-79230000D03*
D11*
%TO.P,SW1,5,5*%
%TO.N,unconnected-(SW1-Pad5)*%
X117110000Y-77480000D03*
X120610000Y-77480000D03*
%TD*%
D15*
%TO.N,GND*%
X141610000Y-73730000D03*
D16*
X136680000Y-72700000D03*
D15*
X127275000Y-79535000D03*
X119160147Y-76242192D03*
X137500000Y-78830000D03*
X129228527Y-79690000D03*
X133820000Y-75530000D03*
D16*
X139440000Y-77810000D03*
D15*
%TO.N,VBUS*%
X135512500Y-71330000D03*
X138087500Y-71330000D03*
%TO.N,+3.3V*%
X141700000Y-75267500D03*
X141500000Y-78180000D03*
X125180000Y-70714000D03*
%TO.N,Net-(U3-XO)*%
X141700000Y-70477500D03*
X131610000Y-77329000D03*
%TO.N,Net-(U3-XI)*%
X130320000Y-75055000D03*
X127275000Y-71915000D03*
X135570000Y-77330000D03*
D16*
X140950000Y-76120000D03*
D15*
%TO.N,D-*%
X132880000Y-74070000D03*
X134490000Y-74430000D03*
D16*
%TO.N,Net-(U2-EN)*%
X137330000Y-72680000D03*
D17*
X141345376Y-71397552D03*
D15*
%TO.N,Net-(U1-GPIO0)*%
X119960000Y-79230000D03*
X125990000Y-81240000D03*
X138850000Y-80290000D03*
D16*
%TO.N,Net-(U1-RST)*%
X136070000Y-72720000D03*
D17*
X130100000Y-72000000D03*
D15*
X119960000Y-74460000D03*
%TO.N,Net-(U1-RX)*%
X121490000Y-81240000D03*
%TO.N,Net-(U1-TX)*%
X119990000Y-81240000D03*
%TD*%
D18*
%TO.N,GND*%
X136387745Y-73111000D02*
X134791000Y-73111000D01*
D19*
X118272192Y-76242192D02*
X117760000Y-75730000D01*
D18*
X134790000Y-73110000D02*
X134610618Y-73110000D01*
X133820000Y-73900618D02*
X133820000Y-75530000D01*
D19*
X141043341Y-74642106D02*
X140595447Y-75090000D01*
D18*
X136680000Y-72700000D02*
X136680000Y-72818745D01*
D19*
X116559000Y-74529000D02*
X116559000Y-71661000D01*
D20*
X133820000Y-75300000D02*
X133820000Y-75530000D01*
D19*
X127275000Y-79535000D02*
X127430000Y-79690000D01*
D18*
X136680000Y-72818745D02*
X136387745Y-73111000D01*
D19*
X117760000Y-75730000D02*
X116559000Y-74529000D01*
X119160147Y-76242192D02*
X118272192Y-76242192D01*
D18*
X141610000Y-73730000D02*
X141610000Y-74075447D01*
D20*
X140595447Y-75090000D02*
X137888500Y-75090000D01*
X134000000Y-75120000D02*
X133820000Y-75300000D01*
D19*
X116559000Y-71661000D02*
X117260000Y-70960000D01*
X127430000Y-79690000D02*
X129228527Y-79690000D01*
D18*
X134610618Y-73110000D02*
X133820000Y-73900618D01*
D20*
X137888500Y-75090000D02*
X134030000Y-75090000D01*
X134030000Y-75090000D02*
X134000000Y-75120000D01*
D19*
X117260000Y-70960000D02*
X117760000Y-70960000D01*
D18*
X141610000Y-74075447D02*
X141043341Y-74642106D01*
X134791000Y-73111000D02*
X134790000Y-73110000D01*
D19*
%TO.N,+3.3V*%
X126481968Y-75725000D02*
X122671968Y-79535000D01*
X125180000Y-74544068D02*
X125180000Y-70714000D01*
X127275000Y-75725000D02*
X126360932Y-75725000D01*
X141500000Y-75467500D02*
X141700000Y-75267500D01*
X122671968Y-79535000D02*
X122325000Y-79535000D01*
X127275000Y-75725000D02*
X126481968Y-75725000D01*
X141500000Y-78180000D02*
X141500000Y-75467500D01*
X126360932Y-75725000D02*
X125180000Y-74544068D01*
%TO.N,Net-(U3-XO)*%
X125999000Y-74795968D02*
X125999000Y-71574032D01*
X126928032Y-70645000D02*
X127275000Y-70645000D01*
X128239000Y-69681000D02*
X140920000Y-69681000D01*
X140920000Y-69681000D02*
X140920000Y-69697500D01*
X125999000Y-71574032D02*
X126928032Y-70645000D01*
X131610000Y-77329000D02*
X129337000Y-75056000D01*
X126259032Y-75056000D02*
X125999000Y-74795968D01*
X129337000Y-75056000D02*
X126259032Y-75056000D01*
X127275000Y-70645000D02*
X128239000Y-69681000D01*
X140920000Y-69697500D02*
X141700000Y-70477500D01*
%TO.N,Net-(U3-XI)*%
X140850000Y-76950000D02*
X140470000Y-77330000D01*
X140950000Y-76120000D02*
X140850000Y-76220000D01*
X140470000Y-77330000D02*
X135570000Y-77330000D01*
X135570000Y-77330000D02*
X132595000Y-77330000D01*
X132595000Y-77330000D02*
X130320000Y-75055000D01*
X140850000Y-76220000D02*
X140850000Y-76950000D01*
D20*
%TO.N,D+*%
X127275000Y-74455000D02*
X130499232Y-74455000D01*
X130499232Y-74455000D02*
X132124232Y-76080000D01*
X132124232Y-76080000D02*
X137500000Y-76080000D01*
D19*
X135463840Y-76080000D02*
X137500000Y-76080000D01*
D18*
%TO.N,D-*%
X127275000Y-73185000D02*
X131995000Y-73185000D01*
X131995000Y-73185000D02*
X132880000Y-74070000D01*
D19*
%TO.N,Net-(U2-EN)*%
X137545000Y-72905000D02*
X137545000Y-72895000D01*
X137545000Y-72895000D02*
X137330000Y-72680000D01*
X141350000Y-71402176D02*
X141350000Y-72266160D01*
X141350000Y-72266160D02*
X140711160Y-72905000D01*
X140711160Y-72905000D02*
X137545000Y-72905000D01*
X141345376Y-71397552D02*
X141350000Y-71402176D01*
%TO.N,Net-(U1-GPIO0)*%
X125990000Y-81240000D02*
X126940000Y-80290000D01*
X126940000Y-80290000D02*
X138850000Y-80290000D01*
%TO.N,Net-(U1-RST)*%
X130835000Y-72735000D02*
X130100000Y-72000000D01*
X136080000Y-72720000D02*
X136065000Y-72735000D01*
X136065000Y-72735000D02*
X130835000Y-72735000D01*
%TO.N,unconnected-(SW1-Pad5)*%
X117110000Y-77480000D02*
X120610000Y-77480000D01*
%TO.N,unconnected-(SW2-Pad5)*%
X117110000Y-72710000D02*
X120610000Y-72710000D01*
%TO.N,Net-(U1-RX)*%
X127275000Y-78265000D02*
X126300001Y-78265000D01*
X123325001Y-81240000D02*
X121490000Y-81240000D01*
X126300001Y-78265000D02*
X123325001Y-81240000D01*
%TO.N,Net-(U1-TX)*%
X127275000Y-76995000D02*
X126481968Y-76995000D01*
X121094000Y-80136000D02*
X119990000Y-81240000D01*
X126481968Y-76995000D02*
X123340968Y-80136000D01*
X123340968Y-80136000D02*
X121094000Y-80136000D01*
%TD*%
%TA.AperFunction,Conductor*%
%TO.N,GND*%
G36*
X129103942Y-75676185D02*
G01*
X129124584Y-75692819D01*
X130775425Y-77343660D01*
X130808910Y-77404983D01*
X130809361Y-77407149D01*
X130840261Y-77562491D01*
X130840264Y-77562501D01*
X130900602Y-77708172D01*
X130900609Y-77708185D01*
X130988210Y-77839288D01*
X130988213Y-77839292D01*
X131099707Y-77950786D01*
X131099711Y-77950789D01*
X131230814Y-78038390D01*
X131230827Y-78038397D01*
X131376498Y-78098735D01*
X131376503Y-78098737D01*
X131531153Y-78129499D01*
X131531156Y-78129500D01*
X131531158Y-78129500D01*
X131688844Y-78129500D01*
X131688845Y-78129499D01*
X131843497Y-78098737D01*
X131989179Y-78038394D01*
X132120289Y-77950789D01*
X132180734Y-77890343D01*
X132242055Y-77856860D01*
X132311747Y-77861844D01*
X132330412Y-77870638D01*
X132363215Y-77889577D01*
X132515943Y-77930501D01*
X132515946Y-77930501D01*
X132681653Y-77930501D01*
X132681669Y-77930500D01*
X133376000Y-77930500D01*
X133443039Y-77950185D01*
X133488794Y-78002989D01*
X133500000Y-78054500D01*
X133500000Y-78580000D01*
X137376000Y-78580000D01*
X137443039Y-78599685D01*
X137488794Y-78652489D01*
X137500000Y-78704000D01*
X137500000Y-78956000D01*
X137480315Y-79023039D01*
X137427511Y-79068794D01*
X137376000Y-79080000D01*
X133500001Y-79080000D01*
X133500001Y-79565500D01*
X133480316Y-79632539D01*
X133427512Y-79678294D01*
X133376001Y-79689500D01*
X127770000Y-79689500D01*
X127770000Y-79285000D01*
X128747295Y-79285000D01*
X128747295Y-79284998D01*
X128747100Y-79282513D01*
X128701281Y-79124801D01*
X128617685Y-78983447D01*
X128612900Y-78977278D01*
X128615366Y-78975364D01*
X128588802Y-78926776D01*
X128593749Y-78857082D01*
X128614856Y-78824232D01*
X128613301Y-78823026D01*
X128618077Y-78816868D01*
X128618081Y-78816865D01*
X128701744Y-78675398D01*
X128747598Y-78517569D01*
X128750500Y-78480694D01*
X128750500Y-78049306D01*
X128747598Y-78012431D01*
X128729689Y-77950790D01*
X128707029Y-77872794D01*
X128701744Y-77854602D01*
X128618081Y-77713135D01*
X128618078Y-77713132D01*
X128613298Y-77706969D01*
X128615750Y-77705066D01*
X128589155Y-77656421D01*
X128594104Y-77586726D01*
X128614940Y-77554304D01*
X128613298Y-77553031D01*
X128618075Y-77546870D01*
X128618081Y-77546865D01*
X128701744Y-77405398D01*
X128747598Y-77247569D01*
X128750500Y-77210694D01*
X128750500Y-76779306D01*
X128747598Y-76742431D01*
X128743841Y-76729500D01*
X128701745Y-76584606D01*
X128701744Y-76584603D01*
X128701744Y-76584602D01*
X128618081Y-76443135D01*
X128618078Y-76443132D01*
X128613298Y-76436969D01*
X128615750Y-76435066D01*
X128589155Y-76386421D01*
X128594104Y-76316726D01*
X128614940Y-76284304D01*
X128613298Y-76283031D01*
X128618075Y-76276870D01*
X128618081Y-76276865D01*
X128701744Y-76135398D01*
X128747598Y-75977569D01*
X128750500Y-75940694D01*
X128750500Y-75780500D01*
X128753050Y-75771814D01*
X128751762Y-75762853D01*
X128762740Y-75738812D01*
X128770185Y-75713461D01*
X128777025Y-75707533D01*
X128780787Y-75699297D01*
X128803021Y-75685007D01*
X128822989Y-75667706D01*
X128833503Y-75665418D01*
X128839565Y-75661523D01*
X128874500Y-75656500D01*
X129036903Y-75656500D01*
X129103942Y-75676185D01*
G37*
%TD.AperFunction*%
%TA.AperFunction,Conductor*%
G36*
X131772297Y-73780185D02*
G01*
X131792939Y-73796819D01*
X132043181Y-74047061D01*
X132076666Y-74108384D01*
X132079500Y-74134742D01*
X132079500Y-74148846D01*
X132110261Y-74303489D01*
X132110264Y-74303501D01*
X132170602Y-74449172D01*
X132170609Y-74449185D01*
X132258210Y-74580288D01*
X132258213Y-74580292D01*
X132369707Y-74691786D01*
X132369711Y-74691789D01*
X132500814Y-74779390D01*
X132500827Y-74779397D01*
X132646498Y-74839735D01*
X132646503Y-74839737D01*
X132801153Y-74870499D01*
X132801156Y-74870500D01*
X132801158Y-74870500D01*
X132958844Y-74870500D01*
X132958845Y-74870499D01*
X133113497Y-74839737D01*
X133259179Y-74779394D01*
X133390289Y-74691789D01*
X133443576Y-74638502D01*
X133506097Y-74575982D01*
X133508170Y-74578055D01*
X133555417Y-74545682D01*
X133625257Y-74543620D01*
X133685124Y-74579642D01*
X133715466Y-74639384D01*
X133720261Y-74663491D01*
X133720264Y-74663501D01*
X133780602Y-74809172D01*
X133780609Y-74809185D01*
X133868210Y-74940288D01*
X133868213Y-74940292D01*
X133979707Y-75051786D01*
X133979711Y-75051789D01*
X134032055Y-75086765D01*
X134076860Y-75140378D01*
X134085567Y-75209703D01*
X134080227Y-75230761D01*
X134075780Y-75243488D01*
X134065186Y-75260666D01*
X134010001Y-75427203D01*
X134009338Y-75433688D01*
X134004900Y-75446394D01*
X133988894Y-75468734D01*
X133975801Y-75492898D01*
X133968837Y-75496729D01*
X133964208Y-75503191D01*
X133938665Y-75513331D01*
X133914586Y-75526581D01*
X133901768Y-75527979D01*
X133899269Y-75528972D01*
X133896908Y-75528510D01*
X133887837Y-75529500D01*
X132403619Y-75529500D01*
X132336580Y-75509815D01*
X132315938Y-75493181D01*
X130837246Y-74014489D01*
X130818124Y-74003449D01*
X130798097Y-73991887D01*
X130749882Y-73941321D01*
X130736658Y-73872714D01*
X130762626Y-73807849D01*
X130819539Y-73767320D01*
X130860097Y-73760500D01*
X131705258Y-73760500D01*
X131772297Y-73780185D01*
G37*
%TD.AperFunction*%
%TA.AperFunction,Conductor*%
G36*
X142148941Y-71687921D02*
G01*
X142191299Y-71743487D01*
X142199500Y-71787833D01*
X142199500Y-74422365D01*
X142179815Y-74489404D01*
X142127011Y-74535159D01*
X142057853Y-74545103D01*
X142028048Y-74536927D01*
X142023780Y-74535159D01*
X141933497Y-74497763D01*
X141933494Y-74497762D01*
X141933491Y-74497761D01*
X141778845Y-74467000D01*
X141778842Y-74467000D01*
X141621158Y-74467000D01*
X141621155Y-74467000D01*
X141466510Y-74497761D01*
X141466498Y-74497764D01*
X141320827Y-74558102D01*
X141320816Y-74558108D01*
X141193389Y-74643252D01*
X141126712Y-74664129D01*
X141059332Y-74645644D01*
X141012642Y-74593665D01*
X141000499Y-74540153D01*
X141000499Y-73529992D01*
X140999141Y-73516701D01*
X141011906Y-73448009D01*
X141038780Y-73412621D01*
X141048767Y-73403480D01*
X141079876Y-73385520D01*
X141191680Y-73273716D01*
X141191681Y-73273713D01*
X141708506Y-72756888D01*
X141708511Y-72756884D01*
X141718714Y-72746680D01*
X141718716Y-72746680D01*
X141830520Y-72634876D01*
X141845171Y-72609500D01*
X141905344Y-72505277D01*
X141905346Y-72505271D01*
X141909577Y-72497945D01*
X141950500Y-72345218D01*
X141950500Y-72187103D01*
X141950500Y-71789703D01*
X141954013Y-71775681D01*
X141953108Y-71764404D01*
X141965153Y-71731229D01*
X141966153Y-71729359D01*
X142015125Y-71679524D01*
X142083266Y-71664076D01*
X142148941Y-71687921D01*
G37*
%TD.AperFunction*%
%TA.AperFunction,Conductor*%
G36*
X133949095Y-73355185D02*
G01*
X133994850Y-73407989D01*
X134005414Y-73472103D01*
X133999500Y-73529983D01*
X133999500Y-73737059D01*
X133990855Y-73766500D01*
X133984336Y-73796478D01*
X133980578Y-73801497D01*
X133979815Y-73804098D01*
X133963187Y-73824734D01*
X133956090Y-73831831D01*
X133868211Y-73919711D01*
X133868186Y-73919748D01*
X133863837Y-73924098D01*
X133837793Y-73938321D01*
X133813100Y-73954790D01*
X133807463Y-73954885D01*
X133802517Y-73957587D01*
X133772915Y-73955472D01*
X133743240Y-73955976D01*
X133738447Y-73953009D01*
X133732825Y-73952608D01*
X133709066Y-73934825D01*
X133683829Y-73919205D01*
X133681216Y-73913979D01*
X133676888Y-73910740D01*
X133668929Y-73889405D01*
X133654533Y-73860614D01*
X133649737Y-73836503D01*
X133635237Y-73801497D01*
X133589397Y-73690827D01*
X133589390Y-73690814D01*
X133501789Y-73559711D01*
X133501786Y-73559707D01*
X133489260Y-73547181D01*
X133455775Y-73485858D01*
X133460759Y-73416166D01*
X133502631Y-73360233D01*
X133568095Y-73335816D01*
X133576941Y-73335500D01*
X133882056Y-73335500D01*
X133949095Y-73355185D01*
G37*
%TD.AperFunction*%
%TD*%
M02*
