M48
; DRILL file {KiCad 9.0.3} date 2025-08-01T16:52:08-0400
; FORMAT={-:-/ absolute / inch / decimal}
; #@! TF.CreationDate,2025-08-01T16:52:08-04:00
; #@! TF.GenerationSoftware,Kicad,Pcbnew,9.0.3
; #@! TF.FileFunction,Plated,1,2,PTH
FMAT,2
INCH
; #@! TA.AperFunction,Plated,PTH,ViaDrill
T1C0.0118
%
G90
G05
T1
X4.6913Y-3.0017
X4.7228Y-2.9315
X4.7228Y-3.1193
X4.724Y-3.1984
X4.7831Y-3.1984
X4.9283Y-2.784
X4.9602Y-3.1984
X5.0108Y-2.8313
X5.0108Y-3.1313
X5.0877Y-3.1374
X5.122Y-2.8346
X5.1307Y-2.9549
X5.1815Y-3.0444
X5.2315Y-2.9161
X5.2685Y-2.9736
X5.2949Y-2.9303
X5.3351Y-2.8083
X5.3374Y-3.0445
X5.3571Y-2.863
X5.3811Y-2.8622
X5.4067Y-2.8614
X5.4134Y-3.1035
X5.4365Y-2.8083
X5.4665Y-3.161
X5.4898Y-3.0634
X5.5492Y-2.9969
X5.5648Y-2.8109
X5.5709Y-3.078
X5.5752Y-2.9028
X5.5787Y-2.7747
X5.5787Y-2.9633
M30
