%TF.GenerationSoftware,KiCad,Pcbnew,9.0.3*%
%TF.CreationDate,2025-08-01T16:52:08-04:00*%
%TF.ProjectId,dongle_pcb,646f6e67-6c65-45f7-9063-622e6b696361,rev?*%
%TF.SameCoordinates,Original*%
%TF.FileFunction,Legend,Bot*%
%TF.FilePolarity,Positive*%
%FSLAX46Y46*%
G04 Gerber Fmt 4.6, Leading zero omitted, Abs format (unit mm)*
G04 Created by KiCad (PCBNEW 9.0.3) date 2025-08-01 16:52:08*
%MOMM*%
%LPD*%
G01*
G04 APERTURE LIST*
G04 Aperture macros list*
%AMRoundRect*
0 Rectangle with rounded corners*
0 $1 Rounding radius*
0 $2 $3 $4 $5 $6 $7 $8 $9 X,Y pos of 4 corners*
0 Add a 4 corners polygon primitive as box body*
4,1,4,$2,$3,$4,$5,$6,$7,$8,$9,$2,$3,0*
0 Add four circle primitives for the rounded corners*
1,1,$1+$1,$2,$3*
1,1,$1+$1,$4,$5*
1,1,$1+$1,$6,$7*
1,1,$1+$1,$8,$9*
0 Add four rect primitives between the rounded corners*
20,1,$1+$1,$2,$3,$4,$5,0*
20,1,$1+$1,$4,$5,$6,$7,0*
20,1,$1+$1,$6,$7,$8,$9,0*
20,1,$1+$1,$8,$9,$2,$3,0*%
G04 Aperture macros list end*
%ADD10C,0.150000*%
%ADD11C,0.120000*%
%ADD12RoundRect,0.237500X-0.237500X0.300000X-0.237500X-0.300000X0.237500X-0.300000X0.237500X0.300000X0*%
%ADD13RoundRect,0.250000X-0.750000X-0.950000X0.750000X-0.950000X0.750000X0.950000X-0.750000X0.950000X0*%
%ADD14RoundRect,0.225000X0.250000X-0.225000X0.250000X0.225000X-0.250000X0.225000X-0.250000X-0.225000X0*%
%ADD15R,0.900000X2.000000*%
%ADD16R,2.500000X2.500000*%
%ADD17RoundRect,0.237500X0.237500X-0.300000X0.237500X0.300000X-0.237500X0.300000X-0.237500X-0.300000X0*%
%ADD18RoundRect,0.150000X-0.150000X0.512500X-0.150000X-0.512500X0.150000X-0.512500X0.150000X0.512500X0*%
%ADD19RoundRect,0.237500X0.300000X0.237500X-0.300000X0.237500X-0.300000X-0.237500X0.300000X-0.237500X0*%
G04 APERTURE END LIST*
D10*
X140709580Y-71173333D02*
X140757200Y-71125714D01*
X140757200Y-71125714D02*
X140804819Y-70982857D01*
X140804819Y-70982857D02*
X140804819Y-70887619D01*
X140804819Y-70887619D02*
X140757200Y-70744762D01*
X140757200Y-70744762D02*
X140661961Y-70649524D01*
X140661961Y-70649524D02*
X140566723Y-70601905D01*
X140566723Y-70601905D02*
X140376247Y-70554286D01*
X140376247Y-70554286D02*
X140233390Y-70554286D01*
X140233390Y-70554286D02*
X140042914Y-70601905D01*
X140042914Y-70601905D02*
X139947676Y-70649524D01*
X139947676Y-70649524D02*
X139852438Y-70744762D01*
X139852438Y-70744762D02*
X139804819Y-70887619D01*
X139804819Y-70887619D02*
X139804819Y-70982857D01*
X139804819Y-70982857D02*
X139852438Y-71125714D01*
X139852438Y-71125714D02*
X139900057Y-71173333D01*
X140138152Y-72030476D02*
X140804819Y-72030476D01*
X139757200Y-71792381D02*
X140471485Y-71554286D01*
X140471485Y-71554286D02*
X140471485Y-72173333D01*
X134176190Y-81758628D02*
X134176190Y-82234819D01*
X134509523Y-81234819D02*
X134176190Y-81758628D01*
X134176190Y-81758628D02*
X133842857Y-81234819D01*
X132985714Y-82234819D02*
X133557142Y-82234819D01*
X133271428Y-82234819D02*
X133271428Y-81234819D01*
X133271428Y-81234819D02*
X133366666Y-81377676D01*
X133366666Y-81377676D02*
X133461904Y-81472914D01*
X133461904Y-81472914D02*
X133557142Y-81520533D01*
X140724819Y-71173333D02*
X140248628Y-70840000D01*
X140724819Y-70601905D02*
X139724819Y-70601905D01*
X139724819Y-70601905D02*
X139724819Y-70982857D01*
X139724819Y-70982857D02*
X139772438Y-71078095D01*
X139772438Y-71078095D02*
X139820057Y-71125714D01*
X139820057Y-71125714D02*
X139915295Y-71173333D01*
X139915295Y-71173333D02*
X140058152Y-71173333D01*
X140058152Y-71173333D02*
X140153390Y-71125714D01*
X140153390Y-71125714D02*
X140201009Y-71078095D01*
X140201009Y-71078095D02*
X140248628Y-70982857D01*
X140248628Y-70982857D02*
X140248628Y-70601905D01*
X140058152Y-72030476D02*
X140724819Y-72030476D01*
X139677200Y-71792381D02*
X140391485Y-71554286D01*
X140391485Y-71554286D02*
X140391485Y-72173333D01*
X139334819Y-79260833D02*
X138858628Y-78927500D01*
X139334819Y-78689405D02*
X138334819Y-78689405D01*
X138334819Y-78689405D02*
X138334819Y-79070357D01*
X138334819Y-79070357D02*
X138382438Y-79165595D01*
X138382438Y-79165595D02*
X138430057Y-79213214D01*
X138430057Y-79213214D02*
X138525295Y-79260833D01*
X138525295Y-79260833D02*
X138668152Y-79260833D01*
X138668152Y-79260833D02*
X138763390Y-79213214D01*
X138763390Y-79213214D02*
X138811009Y-79165595D01*
X138811009Y-79165595D02*
X138858628Y-79070357D01*
X138858628Y-79070357D02*
X138858628Y-78689405D01*
X138334819Y-80165595D02*
X138334819Y-79689405D01*
X138334819Y-79689405D02*
X138811009Y-79641786D01*
X138811009Y-79641786D02*
X138763390Y-79689405D01*
X138763390Y-79689405D02*
X138715771Y-79784643D01*
X138715771Y-79784643D02*
X138715771Y-80022738D01*
X138715771Y-80022738D02*
X138763390Y-80117976D01*
X138763390Y-80117976D02*
X138811009Y-80165595D01*
X138811009Y-80165595D02*
X138906247Y-80213214D01*
X138906247Y-80213214D02*
X139144342Y-80213214D01*
X139144342Y-80213214D02*
X139239580Y-80165595D01*
X139239580Y-80165595D02*
X139287200Y-80117976D01*
X139287200Y-80117976D02*
X139334819Y-80022738D01*
X139334819Y-80022738D02*
X139334819Y-79784643D01*
X139334819Y-79784643D02*
X139287200Y-79689405D01*
X139287200Y-79689405D02*
X139239580Y-79641786D01*
X139239580Y-75953333D02*
X139287200Y-75905714D01*
X139287200Y-75905714D02*
X139334819Y-75762857D01*
X139334819Y-75762857D02*
X139334819Y-75667619D01*
X139334819Y-75667619D02*
X139287200Y-75524762D01*
X139287200Y-75524762D02*
X139191961Y-75429524D01*
X139191961Y-75429524D02*
X139096723Y-75381905D01*
X139096723Y-75381905D02*
X138906247Y-75334286D01*
X138906247Y-75334286D02*
X138763390Y-75334286D01*
X138763390Y-75334286D02*
X138572914Y-75381905D01*
X138572914Y-75381905D02*
X138477676Y-75429524D01*
X138477676Y-75429524D02*
X138382438Y-75524762D01*
X138382438Y-75524762D02*
X138334819Y-75667619D01*
X138334819Y-75667619D02*
X138334819Y-75762857D01*
X138334819Y-75762857D02*
X138382438Y-75905714D01*
X138382438Y-75905714D02*
X138430057Y-75953333D01*
X138334819Y-76286667D02*
X138334819Y-76905714D01*
X138334819Y-76905714D02*
X138715771Y-76572381D01*
X138715771Y-76572381D02*
X138715771Y-76715238D01*
X138715771Y-76715238D02*
X138763390Y-76810476D01*
X138763390Y-76810476D02*
X138811009Y-76858095D01*
X138811009Y-76858095D02*
X138906247Y-76905714D01*
X138906247Y-76905714D02*
X139144342Y-76905714D01*
X139144342Y-76905714D02*
X139239580Y-76858095D01*
X139239580Y-76858095D02*
X139287200Y-76810476D01*
X139287200Y-76810476D02*
X139334819Y-76715238D01*
X139334819Y-76715238D02*
X139334819Y-76429524D01*
X139334819Y-76429524D02*
X139287200Y-76334286D01*
X139287200Y-76334286D02*
X139239580Y-76286667D01*
X122454819Y-74878095D02*
X123264342Y-74878095D01*
X123264342Y-74878095D02*
X123359580Y-74925714D01*
X123359580Y-74925714D02*
X123407200Y-74973333D01*
X123407200Y-74973333D02*
X123454819Y-75068571D01*
X123454819Y-75068571D02*
X123454819Y-75259047D01*
X123454819Y-75259047D02*
X123407200Y-75354285D01*
X123407200Y-75354285D02*
X123359580Y-75401904D01*
X123359580Y-75401904D02*
X123264342Y-75449523D01*
X123264342Y-75449523D02*
X122454819Y-75449523D01*
X123454819Y-76449523D02*
X123454819Y-75878095D01*
X123454819Y-76163809D02*
X122454819Y-76163809D01*
X122454819Y-76163809D02*
X122597676Y-76068571D01*
X122597676Y-76068571D02*
X122692914Y-75973333D01*
X122692914Y-75973333D02*
X122740533Y-75878095D01*
X140734819Y-79260833D02*
X140258628Y-78927500D01*
X140734819Y-78689405D02*
X139734819Y-78689405D01*
X139734819Y-78689405D02*
X139734819Y-79070357D01*
X139734819Y-79070357D02*
X139782438Y-79165595D01*
X139782438Y-79165595D02*
X139830057Y-79213214D01*
X139830057Y-79213214D02*
X139925295Y-79260833D01*
X139925295Y-79260833D02*
X140068152Y-79260833D01*
X140068152Y-79260833D02*
X140163390Y-79213214D01*
X140163390Y-79213214D02*
X140211009Y-79165595D01*
X140211009Y-79165595D02*
X140258628Y-79070357D01*
X140258628Y-79070357D02*
X140258628Y-78689405D01*
X139734819Y-79594167D02*
X139734819Y-80213214D01*
X139734819Y-80213214D02*
X140115771Y-79879881D01*
X140115771Y-79879881D02*
X140115771Y-80022738D01*
X140115771Y-80022738D02*
X140163390Y-80117976D01*
X140163390Y-80117976D02*
X140211009Y-80165595D01*
X140211009Y-80165595D02*
X140306247Y-80213214D01*
X140306247Y-80213214D02*
X140544342Y-80213214D01*
X140544342Y-80213214D02*
X140639580Y-80165595D01*
X140639580Y-80165595D02*
X140687200Y-80117976D01*
X140687200Y-80117976D02*
X140734819Y-80022738D01*
X140734819Y-80022738D02*
X140734819Y-79737024D01*
X140734819Y-79737024D02*
X140687200Y-79641786D01*
X140687200Y-79641786D02*
X140639580Y-79594167D01*
X137769580Y-75950833D02*
X137817200Y-75903214D01*
X137817200Y-75903214D02*
X137864819Y-75760357D01*
X137864819Y-75760357D02*
X137864819Y-75665119D01*
X137864819Y-75665119D02*
X137817200Y-75522262D01*
X137817200Y-75522262D02*
X137721961Y-75427024D01*
X137721961Y-75427024D02*
X137626723Y-75379405D01*
X137626723Y-75379405D02*
X137436247Y-75331786D01*
X137436247Y-75331786D02*
X137293390Y-75331786D01*
X137293390Y-75331786D02*
X137102914Y-75379405D01*
X137102914Y-75379405D02*
X137007676Y-75427024D01*
X137007676Y-75427024D02*
X136912438Y-75522262D01*
X136912438Y-75522262D02*
X136864819Y-75665119D01*
X136864819Y-75665119D02*
X136864819Y-75760357D01*
X136864819Y-75760357D02*
X136912438Y-75903214D01*
X136912438Y-75903214D02*
X136960057Y-75950833D01*
X136864819Y-76855595D02*
X136864819Y-76379405D01*
X136864819Y-76379405D02*
X137341009Y-76331786D01*
X137341009Y-76331786D02*
X137293390Y-76379405D01*
X137293390Y-76379405D02*
X137245771Y-76474643D01*
X137245771Y-76474643D02*
X137245771Y-76712738D01*
X137245771Y-76712738D02*
X137293390Y-76807976D01*
X137293390Y-76807976D02*
X137341009Y-76855595D01*
X137341009Y-76855595D02*
X137436247Y-76903214D01*
X137436247Y-76903214D02*
X137674342Y-76903214D01*
X137674342Y-76903214D02*
X137769580Y-76855595D01*
X137769580Y-76855595D02*
X137817200Y-76807976D01*
X137817200Y-76807976D02*
X137864819Y-76712738D01*
X137864819Y-76712738D02*
X137864819Y-76474643D01*
X137864819Y-76474643D02*
X137817200Y-76379405D01*
X137817200Y-76379405D02*
X137769580Y-76331786D01*
X142204819Y-71173333D02*
X141728628Y-70840000D01*
X142204819Y-70601905D02*
X141204819Y-70601905D01*
X141204819Y-70601905D02*
X141204819Y-70982857D01*
X141204819Y-70982857D02*
X141252438Y-71078095D01*
X141252438Y-71078095D02*
X141300057Y-71125714D01*
X141300057Y-71125714D02*
X141395295Y-71173333D01*
X141395295Y-71173333D02*
X141538152Y-71173333D01*
X141538152Y-71173333D02*
X141633390Y-71125714D01*
X141633390Y-71125714D02*
X141681009Y-71078095D01*
X141681009Y-71078095D02*
X141728628Y-70982857D01*
X141728628Y-70982857D02*
X141728628Y-70601905D01*
X141300057Y-71554286D02*
X141252438Y-71601905D01*
X141252438Y-71601905D02*
X141204819Y-71697143D01*
X141204819Y-71697143D02*
X141204819Y-71935238D01*
X141204819Y-71935238D02*
X141252438Y-72030476D01*
X141252438Y-72030476D02*
X141300057Y-72078095D01*
X141300057Y-72078095D02*
X141395295Y-72125714D01*
X141395295Y-72125714D02*
X141490533Y-72125714D01*
X141490533Y-72125714D02*
X141633390Y-72078095D01*
X141633390Y-72078095D02*
X142204819Y-71506667D01*
X142204819Y-71506667D02*
X142204819Y-72125714D01*
X140699580Y-75963333D02*
X140747200Y-75915714D01*
X140747200Y-75915714D02*
X140794819Y-75772857D01*
X140794819Y-75772857D02*
X140794819Y-75677619D01*
X140794819Y-75677619D02*
X140747200Y-75534762D01*
X140747200Y-75534762D02*
X140651961Y-75439524D01*
X140651961Y-75439524D02*
X140556723Y-75391905D01*
X140556723Y-75391905D02*
X140366247Y-75344286D01*
X140366247Y-75344286D02*
X140223390Y-75344286D01*
X140223390Y-75344286D02*
X140032914Y-75391905D01*
X140032914Y-75391905D02*
X139937676Y-75439524D01*
X139937676Y-75439524D02*
X139842438Y-75534762D01*
X139842438Y-75534762D02*
X139794819Y-75677619D01*
X139794819Y-75677619D02*
X139794819Y-75772857D01*
X139794819Y-75772857D02*
X139842438Y-75915714D01*
X139842438Y-75915714D02*
X139890057Y-75963333D01*
X139890057Y-76344286D02*
X139842438Y-76391905D01*
X139842438Y-76391905D02*
X139794819Y-76487143D01*
X139794819Y-76487143D02*
X139794819Y-76725238D01*
X139794819Y-76725238D02*
X139842438Y-76820476D01*
X139842438Y-76820476D02*
X139890057Y-76868095D01*
X139890057Y-76868095D02*
X139985295Y-76915714D01*
X139985295Y-76915714D02*
X140080533Y-76915714D01*
X140080533Y-76915714D02*
X140223390Y-76868095D01*
X140223390Y-76868095D02*
X140794819Y-76296667D01*
X140794819Y-76296667D02*
X140794819Y-76915714D01*
X133367319Y-72098095D02*
X134176842Y-72098095D01*
X134176842Y-72098095D02*
X134272080Y-72145714D01*
X134272080Y-72145714D02*
X134319700Y-72193333D01*
X134319700Y-72193333D02*
X134367319Y-72288571D01*
X134367319Y-72288571D02*
X134367319Y-72479047D01*
X134367319Y-72479047D02*
X134319700Y-72574285D01*
X134319700Y-72574285D02*
X134272080Y-72621904D01*
X134272080Y-72621904D02*
X134176842Y-72669523D01*
X134176842Y-72669523D02*
X133367319Y-72669523D01*
X133462557Y-73098095D02*
X133414938Y-73145714D01*
X133414938Y-73145714D02*
X133367319Y-73240952D01*
X133367319Y-73240952D02*
X133367319Y-73479047D01*
X133367319Y-73479047D02*
X133414938Y-73574285D01*
X133414938Y-73574285D02*
X133462557Y-73621904D01*
X133462557Y-73621904D02*
X133557795Y-73669523D01*
X133557795Y-73669523D02*
X133653033Y-73669523D01*
X133653033Y-73669523D02*
X133795890Y-73621904D01*
X133795890Y-73621904D02*
X134367319Y-73050476D01*
X134367319Y-73050476D02*
X134367319Y-73669523D01*
X139936666Y-72659580D02*
X139984285Y-72707200D01*
X139984285Y-72707200D02*
X140127142Y-72754819D01*
X140127142Y-72754819D02*
X140222380Y-72754819D01*
X140222380Y-72754819D02*
X140365237Y-72707200D01*
X140365237Y-72707200D02*
X140460475Y-72611961D01*
X140460475Y-72611961D02*
X140508094Y-72516723D01*
X140508094Y-72516723D02*
X140555713Y-72326247D01*
X140555713Y-72326247D02*
X140555713Y-72183390D01*
X140555713Y-72183390D02*
X140508094Y-71992914D01*
X140508094Y-71992914D02*
X140460475Y-71897676D01*
X140460475Y-71897676D02*
X140365237Y-71802438D01*
X140365237Y-71802438D02*
X140222380Y-71754819D01*
X140222380Y-71754819D02*
X140127142Y-71754819D01*
X140127142Y-71754819D02*
X139984285Y-71802438D01*
X139984285Y-71802438D02*
X139936666Y-71850057D01*
X138984285Y-72754819D02*
X139555713Y-72754819D01*
X139269999Y-72754819D02*
X139269999Y-71754819D01*
X139269999Y-71754819D02*
X139365237Y-71897676D01*
X139365237Y-71897676D02*
X139460475Y-71992914D01*
X139460475Y-71992914D02*
X139555713Y-72040533D01*
D11*
%TO.C,C4*%
X141270000Y-71193733D02*
X141270000Y-71486267D01*
X142290000Y-71193733D02*
X142290000Y-71486267D01*
%TO.C,Y1*%
X130590000Y-77120000D02*
X136460000Y-77120000D01*
X130590000Y-80840000D02*
X130590000Y-77120000D01*
X136460000Y-80840000D02*
X130590000Y-80840000D01*
%TO.C,R4*%
X138330000Y-71480580D02*
X138330000Y-71199420D01*
X139350000Y-71480580D02*
X139350000Y-71199420D01*
%TO.C,R5*%
X139800000Y-79281233D02*
X139800000Y-79573767D01*
X140820000Y-79281233D02*
X140820000Y-79573767D01*
%TO.C,C3*%
X139800000Y-75973733D02*
X139800000Y-76266267D01*
X140820000Y-75973733D02*
X140820000Y-76266267D01*
D10*
%TO.C,U1*%
X110390000Y-68940000D02*
X110390000Y-81240000D01*
X130390000Y-68940000D02*
X110390000Y-68940000D01*
X130390000Y-81240000D02*
X130390000Y-68940000D01*
X130390000Y-81250000D02*
X110390000Y-81250000D01*
D11*
%TO.C,R3*%
X138340000Y-79573767D02*
X138340000Y-79281233D01*
X139360000Y-79573767D02*
X139360000Y-79281233D01*
%TO.C,C5*%
X138330000Y-75971233D02*
X138330000Y-76263767D01*
X139350000Y-75971233D02*
X139350000Y-76263767D01*
%TO.C,R2*%
X139810000Y-71486267D02*
X139810000Y-71193733D01*
X140830000Y-71486267D02*
X140830000Y-71193733D01*
%TO.C,C2*%
X141260000Y-75983733D02*
X141260000Y-76276267D01*
X142280000Y-75983733D02*
X142280000Y-76276267D01*
%TO.C,U2*%
X134752500Y-72860000D02*
X134752500Y-72060000D01*
X134752500Y-72860000D02*
X134752500Y-73660000D01*
X137872500Y-72860000D02*
X137872500Y-72060000D01*
X137872500Y-72860000D02*
X137872500Y-73660000D01*
X134802500Y-71560000D02*
X134472500Y-71800000D01*
X134472500Y-71320000D01*
X134802500Y-71560000D01*
G36*
X134802500Y-71560000D02*
G01*
X134472500Y-71800000D01*
X134472500Y-71320000D01*
X134802500Y-71560000D01*
G37*
%TO.C,C1*%
X139916267Y-73220000D02*
X139623733Y-73220000D01*
X139916267Y-74240000D02*
X139623733Y-74240000D01*
%TD*%
%LPC*%
D12*
%TO.C,C4*%
X141780000Y-70477500D03*
X141780000Y-72202500D03*
%TD*%
D13*
%TO.C,Y1*%
X131850000Y-78980000D03*
X135550000Y-78980000D03*
%TD*%
D14*
%TO.C,R4*%
X138840000Y-72115000D03*
X138840000Y-70565000D03*
%TD*%
D12*
%TO.C,R5*%
X140310000Y-78565000D03*
X140310000Y-80290000D03*
%TD*%
%TO.C,C3*%
X140310000Y-75257500D03*
X140310000Y-76982500D03*
%TD*%
D15*
%TO.C,U1*%
X119990000Y-68940000D03*
X121490000Y-68940000D03*
X122990000Y-68940000D03*
X124490000Y-68940000D03*
X125990000Y-68940000D03*
X127490000Y-68940000D03*
X128990000Y-68940000D03*
X128990000Y-81240000D03*
X127490000Y-81240000D03*
X125990000Y-81240000D03*
X124490000Y-81240000D03*
X122990000Y-81240000D03*
X121490000Y-81240000D03*
X119990000Y-81240000D03*
X118490000Y-81240000D03*
D16*
X125190000Y-73790000D03*
%TD*%
D17*
%TO.C,R3*%
X138850000Y-80290000D03*
X138850000Y-78565000D03*
%TD*%
D12*
%TO.C,C5*%
X138840000Y-75255000D03*
X138840000Y-76980000D03*
%TD*%
D17*
%TO.C,R2*%
X140320000Y-72202500D03*
X140320000Y-70477500D03*
%TD*%
D12*
%TO.C,C2*%
X141770000Y-75267500D03*
X141770000Y-76992500D03*
%TD*%
D18*
%TO.C,U2*%
X135362500Y-71722500D03*
X136312500Y-71722500D03*
X137262500Y-71722500D03*
X137262500Y-73997500D03*
X135362500Y-73997500D03*
%TD*%
D19*
%TO.C,C1*%
X140632500Y-73730000D03*
X138907500Y-73730000D03*
%TD*%
%LPD*%
M02*
